<svg height="48" width="48" xmlns="http://www.w3.org/2000/svg" xmlns:xlink="http://www.w3.org/1999/xlink">
 <linearGradient id="a" gradientUnits="userSpaceOnUse" x1="4.19" x2="47.32" y1="11.11" y2="56.05">
  <stop offset="0" stop-color="#d4d4d4"/>
  <stop offset=".3982" stop-color="#e2e2e2"/>
  <stop offset="1" stop-color="#fff"/>
 </linearGradient>
 <radialGradient id="b" cx="23.86" cy="40" gradientTransform="matrix(1 0 0 .5 0 20)" gradientUnits="userSpaceOnUse" r="17.14">
  <stop offset="0"/>
  <stop offset="1" stop-opacity="0"/>
 </radialGradient>
 <linearGradient id="c" gradientTransform="matrix(.89901 0 0 .93424 1.88 1.19)" gradientUnits="userSpaceOnUse" x1="8.55" x2="30.85" y1="30.28" y2="48.3">
  <stop offset="0" stop-color="#fff"/>
  <stop offset="1" stop-color="#fff" stop-opacity=".34"/>
 </linearGradient>
 <metadata/>
 <g transform="matrix(1.56667 0 0 1.56667 -8.93 -23.95)">
  <path d="m41 40a17.1429 8.57143 0 1 1 -34.2857 0 17.1429 8.57143 0 1 1 34.2857 0z" display="block" fill="url(#b)" opacity=".62" transform="matrix(.68333 0 0 .68333 4.75 11.11)"/>
  <path d="m48 48h-48v-48h48z" fill="none" transform="matrix(.625 0 0 .625 6.01 14.01)"/>
  <path d="m33.2828 38.6447-10.875-20.25c-.3125-.5625-.875-.875-1.5-.875s-1.1875.375-1.5.9375l-10.625 20.25c-.25.5-.25 1.1875.0625 1.6875s.8125.75 1.4375.75h21.5c.625 0 1.1875-.3125 1.4375-.8125.3125-.5.3125-1.125.0625-1.6875z" fill="#c00" stroke="#9f0000" stroke-width=".638"/>
  <path d="m9.5 37.6c-.3.5 0 .9.5.9h28.2c.5 0 .8-.4.5-.9l-14.3-26.6c-.3-.5-.7-.5-.9 0z" fill="url(#a)" transform="matrix(.625 0 0 .63425 5.91 14.48)"/>
  <path d="m23.9 36.5c-1.3 0-2.3-1-2.3-2.3 0-1.4.9-2.3 2.3-2.3s2.2.9 2.3 2.3c0 1.3-.9 2.3-2.3 2.3zm-1.4-5.9-.6-11.5h4l-.6 11.5h-2.9z" transform="matrix(.55487 0 0 .55487 7.58 16.53)"/>
  <path d="m32.3231 38.1839-10.1728-18.9182c-.43329-.81498-.58857-1.07645-1.24186-1.07645-.56188 0-.85428.38081-1.2571 1.15008l-9.90238 18.903c-.57516 1.06129-.63611 1.33793-.35516 1.80505.28094.46712.63903.44168 1.96268.47215h19.6182c1.23223.01524 1.5094-.07865 1.73415-.54577.28094-.46712.15906-.83772-.38563-1.78982z" fill="none" opacity=".5" stroke="url(#c)" stroke-width=".638"/>
 </g>
</svg>